<svg width="368" height="312" viewBox="0 0 368 312" fill="none" xmlns="http://www.w3.org/2000/svg">
<rect width="368" height="312" fill="#1E1E1E"/>
<g clip-path="url(#clip0_0_1)">
<path d="M354.613 199.151C368.444 242.551 290.407 274.697 262.07 275.307C233.733 275.916 156.315 242.075 225.896 235.913C295.477 229.751 294.275 151.255 318.439 159.757C342.603 168.26 348.394 179.636 354.613 199.151Z" fill="#C52D2D"/>
<path d="M298.725 233.033C296.638 230.76 296.892 227.315 299.294 225.34C301.695 223.364 305.333 223.604 307.421 225.878C309.508 228.151 309.253 231.595 306.852 233.571C304.451 235.547 300.813 235.306 298.725 233.033Z" fill="#575656"/>
<path d="M185.893 44.7758C206.151 6.42105 266.925 14.6399 293.694 44.7758C320.463 74.9117 327.698 127.649 293.694 106.417C259.69 85.1855 154.06 166.689 185.893 106.417C217.727 46.1455 165.635 83.1306 185.893 44.7758Z" fill="#E3561A"/>
<ellipse cx="244.858" cy="72.5148" rx="5.42622" ry="5.1368" fill="#575656"/>
<path d="M11.324 246.173C6.29317 209.595 42.5022 161.719 75.5116 184.575C108.521 207.431 69.4796 229.75 126.179 231.891C182.879 234.033 90.5757 290.296 61.9916 293.489C33.4075 296.682 16.3549 282.75 11.324 246.173Z" fill="#2D9FC5"/>
<ellipse cx="6.56278" cy="6.56768" rx="6.56278" ry="6.56768" transform="matrix(0.721515 -0.692398 0.730864 0.682523 57.4075 245.374)" fill="#575656"/>
<path d="M61.0863 119.577C61.937 107.342 105.769 58.4079 138.484 62.3326C171.199 66.2573 171.46 52.2878 167.232 97.1654C163.003 142.043 145.046 109.061 89.834 154.41C34.6217 199.759 60.2357 131.812 61.0863 119.577Z" fill="#E38C1A"/>
<ellipse cx="5.85407" cy="5.77703" rx="5.85407" ry="5.77703" transform="matrix(0.80399 -0.594643 0.636523 0.771258 102.093 104.976)" fill="#575656"/>
<path d="M84.0696 223.576L77.8627 155.691L95.3228 153.748L96.3641 162.132L84.6286 163.438L86.9834 182.396L97.3832 181.239L97.9748 186.002L88.2651 188.821L92.4658 222.641L84.0696 223.576ZM132.848 218.146L128.65 218.614L122.068 193.655L114.885 198.125L115.484 220.079L109.568 220.738L105.46 152.62L120.535 150.942L132.848 218.146ZM116.142 156.067C116.094 155.686 115.88 155.516 115.498 155.559L111.514 156.968C111.156 157.201 111.005 157.54 111.06 157.985L115.225 191.519C115.264 191.836 115.475 191.974 115.857 191.931L119.316 190.967C119.698 190.924 119.865 190.713 119.817 190.332L116.142 156.067ZM160.004 215.124L140.731 217.269L132.33 149.629L139.39 148.843L146.549 206.48L148.252 208.512L159.187 208.55L160.004 215.124ZM186.157 212.213L168.124 214.22L159.723 146.58L168.978 145.549L174.405 205.601L185.4 206.115L186.157 212.213ZM201.968 142.94C201.928 142.622 203.201 142.223 205.785 141.742C208.369 141.261 210.934 140.879 213.478 140.596L217.581 140.139C218.598 140.026 219.472 140.315 220.203 141.006C220.934 141.698 221.406 142.643 221.62 143.843L225.982 171.174L222.386 177.273L233.545 204.813L231.993 207.11L226.364 207.737L217.818 178.65L213.011 179.668L214.628 209.043L210.239 209.532L201.968 142.94ZM218.85 171.388C219.232 171.346 219.399 171.134 219.352 170.753L216.405 147.031L214.797 145.761L208.296 147.161L211.742 172.566L218.85 171.388ZM248.485 203.343L240.471 204.235L232.306 138.5L238.317 137.831L248.485 203.343ZM259.083 163.433L271.59 165.228L275.471 196.476C275.637 197.809 275.131 199.186 273.953 200.605C272.767 201.96 271.474 202.716 270.075 202.872L256.431 204.39L255.627 197.912L268.889 196.436L263.428 171.159L252.101 169.522L248.586 141.228C248.46 140.211 248.719 139.184 249.364 138.147C250.065 137.039 250.892 136.431 251.846 136.325L267.78 134.552L268.36 139.22L255.036 142.538L259.083 163.433ZM304.91 198.994L299.281 199.621L290.225 167.983L288.327 169.836L292.125 200.417L285.733 201.129L276.209 134.579L278.572 133.35L282.579 132.904L286.579 165.105L292.643 158.635L288.576 134.458L296.509 131.354L298.162 161.015L294.629 164.499L306.379 196.802L304.91 198.994Z" fill="#D45F3C"/>
</g>
<defs>
<clipPath id="clip0_0_1">
<rect width="368" height="312" fill="white"/>
</clipPath>
</defs>
</svg>
